<svg width="512" height="512" viewBox="0 0 512 512" fill="none" xmlns="http://www.w3.org/2000/svg">
<rect width="512" height="512" rx="96" fill="#141414"/>
<g clip-path="url(#clip0_3561_14)">
<path d="M180.369 328H156.83L213.629 206.183C219.929 192.636 233.511 184 248.447 184H271.986L215.153 305.817C208.854 319.364 195.272 328 180.369 328Z" fill="white"/>
<path d="M252.342 328H228.803L285.636 206.183C291.936 192.636 305.517 184 320.454 184H343.993L287.16 305.817C280.86 319.364 267.279 328 252.342 328Z" fill="white"/>
<path d="M324.349 328H300.809L357.643 206.183C363.942 192.636 377.524 184 392.461 184H416L359.167 305.817C352.867 319.364 339.285 328 324.349 328Z" fill="white"/>
<path d="M120.014 328C133.276 328 144.027 317.25 144.027 303.989C144.027 290.728 133.276 279.978 120.014 279.978C106.751 279.978 96 290.728 96 303.989C96 317.25 106.751 328 120.014 328Z" fill="white"/>
</g>
<defs>
<clipPath id="clip0_3561_14">
<rect width="320" height="144" fill="white" transform="translate(96 184)"/>
</clipPath>
</defs>
</svg>
