<svg width="945" height="426" viewBox="0 0 945 426" fill="none" xmlns="http://www.w3.org/2000/svg">
<g clip-path="url(#clip0_2477_10)">
<path d="M249.1 425.2H179.6L347.3 65.5C365.9 25.5 406 0 450.1 0H519.6L351.8 359.7C333.2 399.7 293.1 425.2 249.1 425.2Z" fill="white"/>
<path d="M461.6 425.2H392.1L559.9 65.5C578.5 25.5 618.6 0 662.7 0H732.2L564.4 359.7C545.8 399.7 505.7 425.2 461.6 425.2Z" fill="white"/>
<path d="M674.2 425.2H604.7L772.5 65.5C791.1 25.5 831.2 0 875.3 0H944.8L777 359.7C758.4 399.7 718.3 425.2 674.2 425.2Z" fill="white"/>
<path d="M70.9 425.2C110.057 425.2 141.8 393.457 141.8 354.3C141.8 315.143 110.057 283.4 70.9 283.4C31.743 283.4 0 315.143 0 354.3C0 393.457 31.743 425.2 70.9 425.2Z" fill="white"/>
</g>
<defs>
<clipPath id="clip0_2477_10">
<rect width="944.8" height="425.2" fill="white"/>
</clipPath>
</defs>
</svg>
