<?xml version="1.0" encoding="utf-8"?>
<!-- Generator: Adobe Illustrator 22.0.1, SVG Export Plug-In . SVG Version: 6.00 Build 0)  -->
<svg version="1.1" id="Layer_1" xmlns="http://www.w3.org/2000/svg" xmlns:xlink="http://www.w3.org/1999/xlink" x="0px" y="0px"
	 viewBox="0 0 1190.6 841.9" style="enable-background:new 0 0 1190.6 841.9;" xml:space="preserve">
<style type="text/css">
	.st0{fill-rule:evenodd;clip-rule:evenodd;}
	.st1{fill:none;}
</style>
<g>
	<g>
		<g>
			<path d="M651.6,266.2c0,8.2-2.9,19.6-14.5,19.6c-14,0-14-15.7-14-19.1c0-3.2,0-20.1,14.4-20.1
				C650.6,246.7,651.6,261.2,651.6,266.2z M623.2,222.3h-9.4v60.6l-0.2,9h9.1l0.2-7.6c1,1.5,2.1,3.2,4.9,5.1
				c4.3,2.9,8.8,3.2,11.2,3.2c6.9,0,13.6-2.9,17.7-8.6c2.5-3.3,4.8-8.6,4.8-18.4c0-11-3.4-16-5.9-18.9c-4.6-5.2-10.9-6.4-15.9-6.4
				c-11.4,0-15.2,6.3-16.4,8.6V222.3z"/>
			<path d="M677.8,268.2c0-4.5,0-20.5,15-20.5c11.1,0,13.8,9.4,13.8,18.5c0,3.6-0.5,10.8-4.1,15.7c-3.2,4.4-8.2,4.9-10.6,4.9
				C678.7,286.9,677.8,274.3,677.8,268.2z M668.7,311.2h9.3v-25c2.7,4.4,8.1,7.5,15.4,7.5c12,0,23-8.2,23-27
				c0-18.7-10.3-26.1-21.2-26.1c-4.1,0-12.4,1.2-17.1,9.1l-0.2-8.3h-9.5c0.2,4.8,0.3,6,0.3,8.2V311.2z"/>
		</g>
		<g>
			<g>
				<g>
					<g>
						<g>
							<g>
								<path class="st0" d="M574.7,311.2c4,6,11.2,17.4,17.3,31.5c-6.9,7.6-12.7,15.4-17.3,23.2c-4.6-7.9-10.4-15.7-17.3-23.2
									C563.5,328.6,570.7,317.3,574.7,311.2z"/>
							</g>
							<g>
								<path class="st0" d="M574.7,544.3c4.6,7.9,10.4,15.7,17.3,23.2c-6.1,14.1-13.3,25.5-17.3,31.5c-4-6-11.2-17.4-17.3-31.5
									C564.3,560,570,552.2,574.7,544.3z"/>
							</g>
							<g>
								<path class="st0" d="M525.4,319.9c5.8,4.3,16.5,12.5,27,23.7c-3.9,9.5-6.7,18.8-8.3,27.8c-7.1-5.8-15.1-11.2-24.2-15.9
									C520.9,340.1,523.8,327,525.4,319.9z"/>
							</g>
							<g>
								<path class="st0" d="M605.2,539c7,5.8,15.1,11.2,24.2,15.9c-0.9,15.4-3.8,28.5-5.5,35.5c-5.8-4.3-16.5-12.5-27.1-23.7
									C600.7,557.3,603.5,548,605.2,539z"/>
							</g>
							<g>
								<path class="st0" d="M482.2,344.9c6.9,2.1,19.8,6.1,33.5,13c-0.1,2.2-0.2,4.5-0.2,6.6c0,7.8,0.6,15.2,1.8,22.3
									c-8.6-3.1-18-5.3-28.2-6.7C484.7,365.4,483,352.1,482.2,344.9z"/>
							</g>
							<g>
								<path class="st0" d="M633.8,545.8c0-7.8-0.6-15.2-1.8-22.3c8.6,3,18,5.3,28.2,6.7c4.4,14.7,6.2,28.1,7,35.3
									c-7-2-19.8-6.1-33.5-13C633.8,550.2,633.8,548,633.8,545.8z"/>
							</g>
							<g>
								<path class="st0" d="M486,384c3.1,9.7,6.9,18.6,11.4,26.6c-9.1,0.1-18.8,1.2-28.7,3.4c-9.2-12.3-15.4-24.3-18.6-30.8
									C457.3,382.8,470.7,382.2,486,384z"/>
							</g>
							<g>
								<path class="st0" d="M680.7,496.4c9.2,12.4,15.4,24.3,18.6,30.8c-7.2,0.4-20.7,1-36-0.8c-3.1-9.7-6.9-18.6-11.4-26.6
									C661,499.7,670.7,498.6,680.7,496.4z"/>
							</g>
							<g>
								<path class="st0" d="M467,418.6c6.2,8.1,12.9,15.2,19.9,21.1c-8.6,3.2-17.2,7.5-25.9,13c-12.9-8.5-22.8-17.5-28-22.5
									C439.6,427.3,452,422.2,467,418.6z"/>
							</g>
							<g>
								<path class="st0" d="M688.4,457.6c12.8,8.4,22.8,17.5,28,22.5c-6.6,2.9-19.1,8-34.1,11.6c-6.2-8.1-12.9-15.1-19.9-21.1
									C671.1,467.5,679.7,463.1,688.4,457.6z"/>
							</g>
							<g>
								<path class="st0" d="M461,457.6c8.6,5.5,17.3,9.8,25.9,13c-7,5.9-13.6,13-19.9,21.1c-15-3.5-27.4-8.7-34-11.6
									C438.2,475.2,448.1,466.1,461,457.6z"/>
							</g>
							<g>
								<path class="st0" d="M682.3,418.6c15,3.6,27.4,8.7,34.1,11.6c-5.3,5-15.2,14.1-28,22.5c-8.6-5.5-17.3-9.8-25.9-13
									C669.4,433.8,676.1,426.7,682.3,418.6z"/>
							</g>
							<g>
								<path class="st0" d="M468.7,496.4c10,2.2,19.6,3.4,28.7,3.4c-4.5,7.9-8.3,16.8-11.4,26.6c-15.3,1.8-28.7,1.2-35.9,0.8
									C453.3,520.6,459.5,508.7,468.7,496.4z"/>
							</g>
							<g>
								<path class="st0" d="M699.3,383.2c-3.2,6.5-9.5,18.4-18.6,30.8c-10-2.2-19.6-3.3-28.7-3.4c4.5-7.9,8.3-16.8,11.4-26.6
									C678.6,382.2,692.1,382.8,699.3,383.2z"/>
							</g>
							<g>
								<path class="st0" d="M517.3,523.5c-1.2,7.1-1.8,14.5-1.8,22.3c0,2.2,0.1,4.4,0.2,6.6c-13.8,6.9-26.6,11-33.5,13
									c0.8-7.2,2.6-20.5,7-35.3C499.3,528.8,508.7,526.5,517.3,523.5z"/>
							</g>
							<g>
								<path class="st0" d="M667.2,344.9c-0.8,7.2-2.6,20.5-7,35.3c-10.1,1.3-19.6,3.6-28.2,6.7c1.2-7.1,1.8-14.5,1.8-22.3
									c0-2.2-0.1-4.4-0.2-6.6C647.4,351,660.2,347,667.2,344.9z"/>
							</g>
							<g>
								<path class="st0" d="M544.2,539c1.7,9,4.4,18.3,8.3,27.7c-10.6,11.2-21.2,19.4-27,23.7c-1.7-7.1-4.6-20.2-5.5-35.5
									C529,550.1,537.1,544.8,544.2,539z"/>
							</g>
							<g>
								<path class="st0" d="M623.9,319.9c1.7,7,4.6,20.2,5.5,35.5c-9.1,4.7-17.2,10.1-24.2,15.9c-1.7-9-4.4-18.3-8.3-27.8
									C607.4,332.4,618.1,324.2,623.9,319.9z"/>
							</g>
						</g>
						<g>
							<g>
								<path class="st0" d="M555.6,347.1c6.7,7.5,12.3,15.3,16.7,23.1c-3.9,7.4-6.8,14.9-8.7,22.4c-4.3-6.4-9.6-12.5-15.8-18
									C549.3,365.6,551.9,356.5,555.6,347.1z"/>
							</g>
							<g>
								<path class="st0" d="M585.7,517.8c4.3,6.4,9.6,12.5,15.8,18c-1.4,8.8-4.1,18-7.8,27.4c-6.7-7.5-12.3-15.3-16.7-23.1
									C581,532.8,583.9,525.3,585.7,517.8z"/>
							</g>
							<g>
								<path class="st0" d="M519.7,364.6c0-1.5,0.1-3,0.1-4.5c8.9,4.8,16.8,10.1,23.6,16c-0.7,4.9-1.1,9.7-1.1,14.4
									c0,3.3,0.2,6.5,0.6,9.6c-6.2-4.5-13.3-8.4-21-11.5C520.4,381,519.7,373,519.7,364.6z"/>
							</g>
							<g>
								<path class="st0" d="M607,519.9c0-3.3-0.2-6.4-0.6-9.6c6.2,4.6,13.3,8.4,21,11.6c1.4,7.5,2.2,15.5,2.2,24
									c0,1.4-0.1,2.9-0.1,4.4c-8.9-4.8-16.8-10.1-23.6-16C606.7,529.4,607,524.6,607,519.9z"/>
							</g>
							<g>
								<path class="st0" d="M490.6,384.6c10,1.5,19.2,3.8,27.6,6.9c1.7,8.2,4.3,15.8,7.7,22.7c-7.4-2.2-15.4-3.4-23.7-3.7
									C497.7,402.9,493.8,394.2,490.6,384.6z"/>
							</g>
							<g>
								<path class="st0" d="M623.4,496.1c7.4,2.1,15.3,3.4,23.7,3.7c4.6,7.7,8.5,16.4,11.7,26c-10-1.5-19.3-3.8-27.6-7
									C629.4,510.6,626.8,503,623.4,496.1z"/>
							</g>
							<g>
								<path class="st0" d="M499.8,414.7c4.4,7.1,9.5,13.3,15,18.7c-7.7,0.5-15.6,2.1-23.5,4.6c-6.9-5.6-13.6-12.5-19.8-20.4
									C481.4,415.6,490.9,414.6,499.8,414.7z"/>
							</g>
							<g>
								<path class="st0" d="M658,472.3c6.9,5.7,13.6,12.5,19.8,20.5c-9.9,2-19.4,3-28.3,2.9c-4.4-7.1-9.5-13.4-15-18.7
									C642.1,476.4,650,474.9,658,472.3z"/>
							</g>
							<g>
								<path class="st0" d="M490.5,442.7c6.6,5.1,13.4,9.3,20.5,12.4c-7.1,3.1-13.9,7.3-20.5,12.4c-8.4-2.9-17.1-7.1-25.6-12.4
									C473.5,449.9,482.1,445.7,490.5,442.7z"/>
							</g>
							<g>
								<path class="st0" d="M658.8,442.7c8.5,2.9,17,7.1,25.6,12.4c-8.6,5.3-17.2,9.5-25.6,12.4c-6.6-5.1-13.5-9.3-20.5-12.4
									C645.3,452,652.2,447.9,658.8,442.7z"/>
							</g>
							<g>
								<path class="st0" d="M491.4,472.3c7.9,2.6,15.8,4.1,23.5,4.7c-5.6,5.4-10.6,11.6-15,18.7c-8.9,0.1-18.5-0.9-28.3-2.9
									C477.8,484.8,484.4,477.9,491.4,472.3z"/>
							</g>
							<g>
								<path class="st0" d="M677.8,417.6c-6.3,7.9-12.9,14.8-19.8,20.4c-7.9-2.6-15.8-4.1-23.5-4.6c5.6-5.4,10.6-11.6,15-18.7
									C658.4,414.6,667.9,415.6,677.8,417.6z"/>
							</g>
							<g>
								<path class="st0" d="M525.9,496.1c-3.4,6.9-6,14.5-7.7,22.7c-8.4,3.2-17.7,5.5-27.6,7c3.2-9.6,7.1-18.3,11.6-26
									C510.6,499.4,518.5,498.2,525.9,496.1z"/>
							</g>
							<g>
								<path class="st0" d="M658.7,384.6c-3.2,9.6-7.1,18.3-11.7,26c-8.4,0.3-16.3,1.5-23.7,3.7c3.4-6.9,6-14.5,7.7-22.7
									C639.5,388.4,648.8,386.1,658.7,384.6z"/>
							</g>
							<g>
								<path class="st0" d="M563.6,517.8c1.9,7.5,4.7,15,8.7,22.3c-4.4,7.8-10,15.6-16.7,23.1c-3.7-9.4-6.3-18.5-7.8-27.4
									C554,530.3,559.3,524.2,563.6,517.8z"/>
							</g>
							<g>
								<path class="st0" d="M542.9,510.3c-0.3,3.2-0.6,6.4-0.6,9.6c0,4.7,0.4,9.5,1.1,14.4c-6.8,5.8-14.7,11.2-23.6,16
									c0-1.5-0.1-3-0.1-4.4c0-8.4,0.7-16.5,2.2-23.9C529.6,518.7,536.6,514.8,542.9,510.3z"/>
							</g>
							<g>
								<path class="st0" d="M593.7,347.1c3.7,9.4,6.4,18.6,7.8,27.4c-6.2,5.6-11.5,11.7-15.8,18c-1.9-7.5-4.8-15-8.7-22.4
									C581.4,362.4,587,354.6,593.7,347.1z"/>
							</g>
							<g>
								<path class="st0" d="M629.5,360.1c0.1,1.5,0.1,3,0.1,4.4c0,8.4-0.7,16.5-2.2,24c-7.7,3.1-14.8,7-21,11.6
									c0.3-3.2,0.6-6.3,0.6-9.6c0-4.7-0.4-9.5-1.1-14.4C612.8,370.3,620.7,364.9,629.5,360.1z"/>
							</g>
						</g>
						<g>
							<g>
								<path class="st0" d="M546.5,390.5c0-3.6,0.3-7.2,0.7-10.9c6.1,5.8,11.2,12,15.2,18.7c-0.8,4.7-1.3,9.5-1.3,14.2
									c0,2.1,0.1,4.1,0.3,6.2c-4-5.6-8.6-10.6-13.9-15C546.8,399.4,546.5,395,546.5,390.5z"/>
							</g>
							<g>
								<path class="st0" d="M588.3,497.9c0-2.1-0.1-4.1-0.3-6.2c4,5.5,8.6,10.6,13.9,15c0.7,4.3,1,8.7,1,13.2
									c0,3.6-0.3,7.2-0.7,10.9c-6.1-5.8-11.2-12-15.2-18.7C587.8,507.4,588.3,502.6,588.3,497.9z"/>
							</g>
							<g>
								<path class="st0" d="M523,393.6c7.7,3.4,14.7,7.5,20.7,12.3c1.2,6.8,3.2,13.3,6.1,19.5c-5.7-3.9-11.7-7-18.2-9.4
									C527.8,409.3,524.9,401.7,523,393.6z"/>
							</g>
							<g>
								<path class="st0" d="M599.6,484.9c5.7,3.9,11.7,7,18.2,9.4c3.7,6.8,6.6,14.3,8.6,22.5c-7.7-3.4-14.7-7.5-20.7-12.3
									C604.5,497.7,602.5,491.2,599.6,484.9z"/>
							</g>
							<g>
								<path class="st0" d="M505,415c8.4,0.5,16.3,2,23.7,4.5c3.4,6,7.6,11.4,12.4,16.3c-6.6-1.7-13.4-2.6-20.3-2.6
									C514.9,428.1,509.6,421.9,505,415z"/>
							</g>
							<g>
								<path class="st0" d="M608.3,474.6c6.6,1.7,13.4,2.6,20.4,2.6c5.8,5.1,11,11.2,15.7,18.2c-8.4-0.5-16.3-2-23.7-4.5
									C617.2,484.9,613.1,479.5,608.3,474.6z"/>
							</g>
							<g>
								<path class="st0" d="M519.2,437.3c5.3,4.4,11,8.1,17.2,11.1c-6.8,0.7-13.5,2.2-19.9,4.5c-7.2-2.8-14.3-6.8-21-11.8
									C503.5,438.8,511.5,437.5,519.2,437.3z"/>
							</g>
							<g>
								<path class="st0" d="M632.9,457.4c7.2,2.8,14.3,6.8,21,11.8c-8.1,2.4-16,3.7-23.8,3.8c-5.3-4.4-11-8.1-17.2-11.1
									C619.8,461.2,626.4,459.7,632.9,457.4z"/>
							</g>
							<g>
								<path class="st0" d="M516.5,457.4c6.5,2.4,13.1,3.9,19.9,4.6c-6.2,3-11.9,6.6-17.2,11c-7.7-0.1-15.7-1.5-23.8-3.8
									C502.2,464.1,509.3,460.2,516.5,457.4z"/>
							</g>
							<g>
								<path class="st0" d="M630.1,437.3c7.7,0.1,15.7,1.5,23.8,3.8c-6.8,5-13.8,9-21,11.8c-6.4-2.4-13.1-3.9-19.9-4.5
									C619.1,445.4,624.9,441.8,630.1,437.3z"/>
							</g>
							<g>
								<path class="st0" d="M541,474.6c-4.8,4.9-8.9,10.3-12.4,16.3c-7.3,2.5-15.3,4-23.7,4.5c4.6-7,9.9-13.1,15.7-18.2
									C527.6,477.2,534.4,476.3,541,474.6z"/>
							</g>
							<g>
								<path class="st0" d="M644.3,415c-4.6,7-9.9,13.1-15.7,18.2c-6.9,0-13.7,0.9-20.4,2.6c4.8-4.9,8.9-10.3,12.4-16.3
									C628,417,635.9,415.5,644.3,415z"/>
							</g>
							<g>
								<path class="st0" d="M574.7,494c1.9,6.6,4.5,12.9,7.9,18.9c-1.5,7.6-4.2,15.2-7.9,22.7c-3.7-7.5-6.4-15.2-7.9-22.7
									C570.2,506.9,572.8,500.6,574.7,494z"/>
							</g>
							<g>
								<path class="st0" d="M561.4,491.7c-0.2,2.1-0.3,4.1-0.3,6.2c0,4.8,0.4,9.5,1.3,14.2c-4,6.6-9.1,12.9-15.2,18.7
									c-0.4-3.7-0.7-7.3-0.7-10.9c0-4.5,0.4-8.9,1-13.2C552.8,502.3,557.4,497.2,561.4,491.7z"/>
							</g>
							<g>
								<path class="st0" d="M549.7,484.9c-2.8,6.2-4.9,12.8-6.1,19.5c-6,4.9-13,9-20.7,12.3c2-8.2,4.8-15.8,8.6-22.5
									C538,491.9,544,488.8,549.7,484.9z"/>
							</g>
							<g>
								<path class="st0" d="M574.7,374.7c3.7,7.5,6.4,15.2,7.9,22.7c-3.4,5.9-6.1,12.3-7.9,18.9c-1.8-6.6-4.5-12.9-7.9-18.9
									C568.2,389.9,570.9,382.3,574.7,374.7z"/>
							</g>
							<g>
								<path class="st0" d="M602.2,379.6c0.4,3.7,0.7,7.3,0.7,10.9c0,4.5-0.4,8.9-1,13.2c-5.3,4.4-9.9,9.5-13.9,15
									c0.2-2.1,0.3-4.1,0.3-6.2c0-4.8-0.5-9.5-1.3-14.2C591,391.6,596.1,385.4,602.2,379.6z"/>
							</g>
							<g>
								<path class="st0" d="M626.4,393.6c-2,8.2-4.8,15.7-8.6,22.5c-6.5,2.3-12.5,5.5-18.2,9.4c2.8-6.2,4.9-12.8,6.1-19.5
									C611.7,401,618.7,396.9,626.4,393.6z"/>
							</g>
						</g>
					</g>
				</g>
			</g>
		</g>
	</g>
	<g>
		<rect x="432.9" y="661.4" class="st1" width="283.5" height="8.5"/>
		<rect x="362.1" y="169.9" class="st1" width="425.2" height="500.1"/>
	</g>
</g>
</svg>
