<?xml version="1.0" encoding="utf-8"?>
<!-- Generator: Adobe Illustrator 25.4.0, SVG Export Plug-In . SVG Version: 6.00 Build 0)  -->
<svg version="1.1" id="Layer_1" xmlns="http://www.w3.org/2000/svg" xmlns:xlink="http://www.w3.org/1999/xlink" x="0px" y="0px"
	 viewBox="0 0 425.24 500.57" style="enable-background:new 0 0 425.24 500.57;" xml:space="preserve">
<style type="text/css">
	.st0{fill:#009900;}
	.st1{fill-rule:evenodd;clip-rule:evenodd;fill:#009900;}
	.st2{fill-rule:evenodd;clip-rule:evenodd;fill:#99CC00;}
	.st3{fill-rule:evenodd;clip-rule:evenodd;fill:#FFFFFF;}
	.st4{fill-rule:evenodd;clip-rule:evenodd;fill:#FFE600;}
	.st5{fill:none;}
</style>
<g>
	<g>
		<g>
			<path class="st0" d="M289.52,96.91c0,8.22-2.91,19.55-14.54,19.55c-14.04,0-14.04-15.74-14.04-19.05c0-3.21,0-20.05,14.43-20.05
				C288.53,77.36,289.52,91.89,289.52,96.91z M261.15,53h-9.41v60.55l-0.21,9.02h9.11l0.2-7.62c1.01,1.5,2.11,3.21,4.92,5.11
				c4.32,2.91,8.82,3.21,11.22,3.21c6.92,0,13.64-2.91,17.66-8.62c2.5-3.31,4.8-8.62,4.8-18.35c0-11.03-3.41-16.04-5.91-18.95
				c-4.61-5.21-10.94-6.42-15.95-6.42c-11.43,0-15.14,6.32-16.44,8.62V53z"/>
			<path class="st0" d="M315.68,98.91c0-4.51,0-20.46,15.04-20.46c11.13,0,13.84,9.43,13.84,18.45c0,3.61-0.5,10.83-4.11,15.74
				c-3.21,4.41-8.22,4.91-10.62,4.91C316.59,117.56,315.68,105.03,315.68,98.91z M306.67,141.92h9.32v-24.96
				c2.7,4.41,8.12,7.52,15.44,7.52c12.04,0,22.95-8.22,22.95-26.97c0-18.65-10.31-26.07-21.13-26.07c-4.11,0-12.44,1.2-17.15,9.12
				l-0.2-8.32h-9.52c0.2,4.81,0.3,6.01,0.3,8.22V141.92z"/>
		</g>
		<g>
			<g>
				<path class="st1" d="M231.92,176.63c-7.1-16.77-15.82-29.56-19.27-34.74c-3.46,5.17-12.18,17.97-19.27,34.74
					c6.95,7.47,13.8,16.27,19.27,26.26C218.09,192.9,224.97,184.1,231.92,176.63z"/>
				<path class="st1" d="M193.39,395c7.09,16.76,15.81,29.56,19.27,34.73c3.45-5.18,12.17-17.97,19.27-34.73
					c-6.95-7.49-13.83-16.29-19.27-26.27C207.19,378.71,200.34,387.51,193.39,395z"/>
				<path class="st1" d="M193.39,176.63c-12.38-13.35-24.95-22.38-29.96-26.06c-1.48,6.03-5.29,21.04-6.21,39.23
					c9.06,4.65,18.53,10.58,27.07,18.08C186.01,196.63,189.43,186.01,193.39,176.63z"/>
				<path class="st1" d="M231.92,395c12.36,13.34,24.95,22.37,29.96,26.05c1.47-6.05,5.29-21.05,6.2-39.22
					c-9.06-4.66-18.53-10.6-27.07-18.1C239.3,374.98,235.86,385.6,231.92,395z"/>
				<path class="st1" d="M157.22,189.8c-16.2-8.29-31.11-12.49-37.07-14.25c0.67,6.19,2.21,21.6,7.58,39
					c10.1,1.25,21.02,3.59,31.62,7.73C157.1,211.13,156.7,199.97,157.22,189.8z"/>
				<path class="st1" d="M268.08,381.84c16.2,8.29,31.1,12.48,37.08,14.22c-0.67-6.18-2.23-21.59-7.59-38.99
					c-10.1-1.26-21.03-3.61-31.62-7.76C268.19,360.5,268.6,371.65,268.08,381.84z"/>
				<path class="st1" d="M140.84,244.35c-5.91-9.72-10.1-20.08-13.11-29.8c-18.07-2.27-33.5-1.11-39.72-0.7
					c2.75,5.57,9.48,19.52,20.44,34.04C118.4,245.61,129.47,244.09,140.84,244.35z"/>
				<path class="st1" d="M284.45,327.27c5.93,9.72,10.15,20.08,13.12,29.8c18.06,2.26,33.51,1.1,39.72,0.71
					c-2.76-5.6-9.46-19.54-20.46-34.07C306.9,326,295.84,327.54,284.45,327.27z"/>
				<path class="st1" d="M108.45,247.89c-17.73,4.05-31.84,10.42-37.54,12.93c4.5,4.29,15.59,15.1,30.87,24.99
					c8.54-5.52,18.42-10.77,29.2-14.4C122.1,264.29,114.62,256.01,108.45,247.89z"/>
				<path class="st1" d="M323.5,285.81c-8.55,5.54-18.41,10.77-29.19,14.4c8.88,7.11,16.38,15.39,22.52,23.51
					c17.75-4.05,31.88-10.41,37.55-12.92C349.89,306.51,338.8,295.68,323.5,285.81z"/>
				<path class="st1" d="M130.99,300.21c-10.79-3.63-20.66-8.87-29.2-14.4c-15.28,9.87-26.37,20.71-30.87,24.99
					c5.7,2.51,19.81,8.87,37.54,12.92C114.62,315.6,122.1,307.32,130.99,300.21z"/>
				<path class="st1" d="M294.31,271.41c10.77,3.63,20.64,8.88,29.19,14.4c15.3-9.89,26.39-20.7,30.88-24.99
					c-5.67-2.51-19.79-8.87-37.55-12.93C310.69,256.01,303.19,264.29,294.31,271.41z"/>
				<path class="st1" d="M108.45,323.72c-10.96,14.52-17.69,28.47-20.44,34.07c6.22,0.38,21.65,1.54,39.72-0.71
					c3-9.72,7.2-20.08,13.11-29.8C129.47,327.54,118.4,326,108.45,323.72z"/>
				<path class="st1" d="M316.83,247.89c11-14.53,17.7-28.47,20.46-34.06c-6.21-0.38-21.66-1.54-39.72,0.72
					c-2.97,9.72-7.19,20.08-13.12,29.8C295.84,244.09,306.9,245.61,316.83,247.89z"/>
				<path class="st1" d="M159.35,349.31c-10.6,4.15-21.52,6.49-31.62,7.76c-5.36,17.39-6.91,32.81-7.58,38.99
					c5.96-1.75,20.87-5.94,37.07-14.22C156.7,371.65,157.1,360.5,159.35,349.31z"/>
				<path class="st1" d="M265.94,222.28c10.6-4.14,21.52-6.48,31.62-7.73c5.36-17.4,6.92-32.81,7.59-39
					c-5.98,1.74-20.88,5.94-37.08,14.23C268.6,199.97,268.19,211.11,265.94,222.28z"/>
				<path class="st1" d="M157.22,381.84c0.92,18.16,4.73,33.17,6.21,39.22c5.01-3.69,17.58-12.72,29.96-26.05
					c-3.95-9.4-7.38-20.02-9.1-31.27C175.75,371.23,166.28,377.18,157.22,381.84z"/>
				<path class="st1" d="M268.08,189.78c-0.91-18.17-4.73-33.18-6.2-39.21c-5.01,3.68-17.6,12.71-29.96,26.06
					c3.94,9.37,7.38,20,9.09,31.25C249.55,200.38,259.02,194.43,268.08,189.78z"/>
			</g>
			<g>
				<path class="st2" d="M202.78,229.86c1.82-9.73,5.36-18.75,9.87-26.98c-5.46-9.99-12.31-18.78-19.27-26.26
					c-3.95,9.38-7.38,20-9.1,31.25C191.34,214.08,197.76,221.34,202.78,229.86z"/>
				<path class="st2" d="M222.52,341.75c-1.83,9.73-5.36,18.75-9.87,26.98c5.44,9.98,12.32,18.78,19.27,26.27
					c3.94-9.4,7.38-20.02,9.09-31.27C233.98,357.53,227.54,350.27,222.52,341.75z"/>
				<path class="st2" d="M159.35,222.28c8.73,3.41,17.25,8.04,24.89,14.32c-1.61-9.75-1.37-19.44,0.05-28.73
					c-8.54-7.5-18-13.43-27.07-18.08C156.7,199.97,157.1,211.13,159.35,222.28z"/>
				<path class="st2" d="M265.94,349.31c-8.73-3.39-17.23-8.04-24.88-14.3c1.62,9.75,1.36,19.42-0.05,28.71
					c8.54,7.5,18.01,13.45,27.07,18.1C268.6,371.65,268.19,360.5,265.94,349.31z"/>
				<path class="st2" d="M169.14,249.29c-4.87-8.61-7.95-17.81-9.79-27.01c-10.6-4.14-21.52-6.48-31.62-7.73
					c3,9.72,7.2,20.08,13.11,29.8C150.2,244.56,159.81,246.01,169.14,249.29z"/>
				<path class="st2" d="M256.16,322.33c4.85,8.61,7.94,17.79,9.78,26.99c10.6,4.15,21.52,6.5,31.62,7.76
					c-2.97-9.72-7.19-20.08-13.12-29.8C275.09,327.06,265.49,325.61,256.16,322.33z"/>
				<path class="st2" d="M130.99,271.41c8.88-3.01,18.39-4.93,28.28-5.03c-7.52-6.44-13.57-14.01-18.43-22.03
					c-11.37-0.26-22.44,1.26-32.38,3.54C114.62,256.01,122.1,264.29,130.99,271.41z"/>
				<path class="st2" d="M294.31,300.21c-8.9,3-18.39,4.92-28.28,5.03c7.52,6.43,13.55,14.02,18.41,22.04
					c11.39,0.26,22.45-1.28,32.38-3.56C310.69,315.6,303.19,307.32,294.31,300.21z"/>
				<path class="st2" d="M155.83,285.81c-9.25-3.47-17.52-8.54-24.84-14.4c-10.79,3.63-20.66,8.88-29.2,14.4
					c8.54,5.54,18.42,10.77,29.2,14.4C138.31,294.35,146.58,289.28,155.83,285.81z"/>
				<path class="st2" d="M269.46,285.81c9.27,3.47,17.53,8.54,24.86,14.4c10.77-3.63,20.64-8.87,29.19-14.4
					c-8.55-5.52-18.41-10.77-29.19-14.4C286.99,277.26,278.72,282.33,269.46,285.81z"/>
				<path class="st2" d="M140.84,327.27c4.86-8.02,10.91-15.61,18.43-22.04c-9.89-0.1-19.4-2.02-28.28-5.03
					c-8.89,7.11-16.37,15.39-22.54,23.51C118.4,326,129.47,327.54,140.84,327.27z"/>
				<path class="st2" d="M284.45,244.35c-4.86,8.01-10.89,15.59-18.41,22.03c9.89,0.1,19.38,2.02,28.28,5.03
					c8.88-7.12,16.38-15.4,22.52-23.52C306.9,245.61,295.84,244.09,284.45,244.35z"/>
				<path class="st2" d="M169.14,322.33c-9.33,3.29-18.94,4.73-28.3,4.95c-5.91,9.72-10.1,20.08-13.11,29.8
					c10.1-1.27,21.02-3.61,31.62-7.76C161.19,340.12,164.27,330.93,169.14,322.33z"/>
				<path class="st2" d="M256.16,249.29c9.33-3.28,18.92-4.73,28.28-4.94c5.93-9.72,10.15-20.08,13.12-29.8
					c-10.1,1.25-21.03,3.59-31.62,7.73C264.11,231.48,261.02,240.67,256.16,249.29z"/>
				<path class="st2" d="M202.78,341.75c-5.02,8.51-11.45,15.78-18.49,21.98c1.72,11.25,5.15,21.87,9.1,31.27
					c6.95-7.49,13.8-16.29,19.27-26.27C208.14,360.5,204.6,351.48,202.78,341.75z"/>
				<path class="st2" d="M184.24,335.02c-7.65,6.26-16.16,10.9-24.89,14.3c-2.25,11.18-2.65,22.33-2.13,32.52
					c9.06-4.66,18.53-10.6,27.07-18.1C182.87,354.44,182.63,344.76,184.24,335.02z"/>
				<path class="st2" d="M222.52,229.86c5.02-8.52,11.46-15.8,18.49-21.99c-1.71-11.25-5.15-21.88-9.09-31.25
					c-6.95,7.47-13.83,16.27-19.27,26.26C217.16,211.11,220.69,220.13,222.52,229.86z"/>
				<path class="st2" d="M241.06,236.6c7.65-6.28,16.15-10.91,24.88-14.32c2.25-11.17,2.65-22.32,2.13-32.5
					c-9.06,4.65-18.53,10.6-27.07,18.09C242.43,217.16,242.68,226.85,241.06,236.6z"/>
			</g>
			<path class="st3" d="M202.82,258.83c-5.07-9.07-11.44-16.36-18.58-22.23c1.51,9.12,4.65,18.27,9.95,27.2
				c-7.87-6.76-16.34-11.45-25.05-14.51c4.5,8.05,10.6,15.59,18.64,22.16c-9.72-3.68-19.29-5.18-28.52-5.07
				c7,6.02,15.29,11,25.1,14.45c-10.38-0.13-19.88,1.74-28.54,4.99c8.66,3.25,18.16,5.11,28.54,4.98
				c-9.81,3.44-18.1,8.43-25.1,14.44c9.22,0.11,18.79-1.38,28.52-5.07c-8.04,6.58-14.14,14.1-18.64,22.16
				c8.71-3.07,17.18-7.76,25.05-14.51c-5.3,8.92-8.44,18.08-9.95,27.21c7.14-5.88,13.51-13.16,18.58-22.22
				c-1.93,10.19-1.72,19.88-0.04,28.95c4.71-7.96,8.18-16.98,9.87-27.22c1.7,10.24,5.16,19.26,9.87,27.22
				c1.7-9.08,1.88-18.76-0.04-28.95c5.08,9.05,11.46,16.34,18.59,22.22c-1.5-9.13-4.67-18.28-9.96-27.21
				c7.87,6.76,16.37,11.44,25.06,14.51c-4.51-8.06-10.61-15.58-18.65-22.16c9.73,3.68,19.28,5.17,28.52,5.07
				c-7.01-6.01-15.3-11-25.1-14.46c10.39,0.15,19.87-1.72,28.52-4.97c-8.65-3.25-18.13-5.12-28.52-4.99
				c9.8-3.44,18.09-8.43,25.1-14.45c-9.23-0.11-18.79,1.39-28.53,5.07c8.05-6.57,14.15-14.11,18.66-22.16
				c-8.7,3.08-17.19,7.75-25.06,14.52c5.3-8.93,8.46-18.08,9.96-27.2c-7.13,5.87-13.51,13.16-18.59,22.23
				c1.93-10.22,1.75-19.9,0.04-28.97c-4.71,7.94-8.17,16.98-9.87,27.23c-1.69-10.25-5.16-19.29-9.87-27.23
				C201.1,238.93,200.89,248.61,202.82,258.83z"/>
			<g>
				<path class="st4" d="M202.82,258.83c-1.93-10.22-1.72-19.9-0.04-28.97c-5.02-8.52-11.45-15.78-18.49-21.99
					c-1.42,9.28-1.66,18.97-0.05,28.73C191.38,242.47,197.75,249.76,202.82,258.83z"/>
				<path class="st4" d="M222.47,312.8c1.93,10.19,1.75,19.88,0.04,28.95c5.02,8.51,11.46,15.78,18.49,21.98
					c1.42-9.29,1.67-18.97,0.05-28.71C233.93,329.14,227.55,321.85,222.47,312.8z"/>
				<path class="st4" d="M184.24,236.6c-7.65-6.28-16.16-10.91-24.89-14.32c1.84,9.2,4.92,18.39,9.79,27.01
					c8.71,3.06,17.18,7.75,25.05,14.51C188.89,254.87,185.75,245.72,184.24,236.6z"/>
				<path class="st4" d="M241.06,335.02c7.65,6.26,16.15,10.9,24.88,14.3c-1.84-9.19-4.93-18.38-9.78-26.99
					c-8.7-3.07-17.19-7.76-25.06-14.51C236.4,316.74,239.56,325.89,241.06,335.02z"/>
				<path class="st4" d="M187.78,271.45c-8.04-6.57-14.14-14.11-18.64-22.16c-9.33-3.28-18.94-4.73-28.3-4.94
					c4.86,8.01,10.91,15.59,18.43,22.03C168.49,266.27,178.06,267.77,187.78,271.45z"/>
				<path class="st4" d="M237.52,300.17c8.03,6.58,14.13,14.1,18.65,22.16c9.33,3.29,18.92,4.73,28.28,4.95
					c-4.86-8.02-10.89-15.61-18.41-22.04C256.8,305.34,247.25,303.85,237.52,300.17z"/>
				<path class="st4" d="M184.37,280.82c-9.81-3.44-18.1-8.43-25.1-14.45c-9.89,0.1-19.4,2.02-28.28,5.03
					c7.32,5.85,15.59,10.92,24.84,14.4C164.48,282.56,173.98,280.69,184.37,280.82z"/>
				<path class="st4" d="M240.93,290.78c9.8,3.46,18.09,8.45,25.1,14.46c9.89-0.1,19.38-2.03,28.28-5.03
					c-7.32-5.87-15.59-10.93-24.86-14.4C260.81,289.06,251.32,290.92,240.93,290.78z"/>
				<path class="st4" d="M155.83,285.81c-9.25,3.47-17.52,8.54-24.84,14.4c8.88,3.01,18.39,4.92,28.28,5.03
					c7-6.01,15.29-11,25.1-14.44C173.98,290.92,164.48,289.06,155.83,285.81z"/>
				<path class="st4" d="M269.46,285.81c9.27-3.47,17.53-8.54,24.86-14.4c-8.9-3.01-18.39-4.93-28.28-5.03
					c-7.01,6.02-15.3,11-25.1,14.45C251.32,280.69,260.81,282.56,269.46,285.81z"/>
				<path class="st4" d="M187.78,300.17c-9.72,3.68-19.29,5.17-28.52,5.07c-7.52,6.43-13.57,14.02-18.43,22.04
					c9.37-0.21,18.97-1.66,28.3-4.95C173.65,314.27,179.74,306.75,187.78,300.17z"/>
				<path class="st4" d="M237.5,271.45c9.75-3.68,19.3-5.18,28.53-5.07c7.52-6.44,13.55-14.01,18.41-22.03
					c-9.36,0.21-18.96,1.66-28.28,4.94C251.65,257.33,245.55,264.87,237.5,271.45z"/>
				<path class="st4" d="M202.78,341.75c1.82,9.73,5.36,18.75,9.87,26.98c4.51-8.23,8.04-17.25,9.87-26.98
					c-4.71-7.96-8.17-16.98-9.87-27.22C210.96,324.77,207.49,333.79,202.78,341.75z"/>
				<path class="st4" d="M202.82,312.8c-5.07,9.05-11.44,16.34-18.58,22.22c-1.61,9.74-1.37,19.42,0.05,28.71
					c7.05-6.2,13.47-13.46,18.49-21.98C201.1,332.68,200.89,322.99,202.82,312.8z"/>
				<path class="st4" d="M169.14,322.33c-4.87,8.61-7.95,17.79-9.79,26.99c8.73-3.39,17.25-8.04,24.89-14.3
					c1.51-9.13,4.65-18.28,9.95-27.21C186.32,314.57,177.85,319.26,169.14,322.33z"/>
				<path class="st4" d="M222.52,229.86c-1.83-9.73-5.36-18.75-9.87-26.98c-4.51,8.23-8.05,17.25-9.87,26.98
					c4.71,7.94,8.18,16.98,9.87,27.23C214.35,246.84,217.81,237.8,222.52,229.86z"/>
				<path class="st4" d="M222.47,258.83c5.08-9.07,11.46-16.36,18.59-22.23c1.62-9.75,1.36-19.44-0.05-28.73
					c-7.03,6.19-13.47,13.47-18.49,21.99C224.22,238.93,224.4,248.61,222.47,258.83z"/>
				<path class="st4" d="M256.16,249.29c4.85-8.61,7.94-17.81,9.78-27.01c-8.73,3.41-17.23,8.04-24.88,14.32
					c-1.5,9.12-4.67,18.27-9.96,27.2C238.97,257.04,247.47,252.36,256.16,249.29z"/>
			</g>
		</g>
	</g>
	<g>
		<rect x="0.03" y="0.05" class="st5" width="425.2" height="500.53"/>
		<rect x="70.9" y="492.08" class="st5" width="283.46" height="8.5"/>
	</g>
</g>
</svg>
