<svg width="285" height="377" viewBox="0 0 285 377" fill="none" xmlns="http://www.w3.org/2000/svg">
<g clip-path="url(#clip0_3734_398)">
<path d="M219.52 43.91C219.52 52.13 216.61 63.46 204.98 63.46C190.94 63.46 190.94 47.72 190.94 44.41C190.94 41.2 190.94 24.36 205.37 24.36C218.53 24.36 219.52 38.89 219.52 43.91ZM191.15 0H181.74V60.55L181.53 69.57H190.64L190.84 61.95C191.85 63.45 192.95 65.16 195.76 67.06C200.08 69.97 204.58 70.27 206.98 70.27C213.9 70.27 220.62 67.36 224.64 61.65C227.14 58.34 229.44 53.03 229.44 43.3C229.44 32.27 226.03 27.26 223.53 24.35C218.92 19.14 212.59 17.93 207.58 17.93C196.15 17.93 192.44 24.25 191.14 26.55V0H191.15Z" fill="#009900"/>
<path d="M245.68 45.91C245.68 41.4 245.68 25.45 260.72 25.45C271.85 25.45 274.56 34.88 274.56 43.9C274.56 47.51 274.06 54.73 270.45 59.64C267.24 64.05 262.23 64.55 259.83 64.55C246.59 64.56 245.68 52.03 245.68 45.91ZM236.67 88.92H245.99V63.96C248.69 68.37 254.11 71.48 261.43 71.48C273.47 71.48 284.38 63.26 284.38 44.51C284.38 25.86 274.07 18.44 263.25 18.44C259.14 18.44 250.81 19.64 246.1 27.56L245.9 19.24H236.38C236.58 24.05 236.68 25.25 236.68 27.46V88.92H236.67Z" fill="#009900"/>
<path fill-rule="evenodd" clip-rule="evenodd" d="M161.92 123.63C154.82 106.86 146.1 94.07 142.65 88.89C139.19 94.06 130.47 106.86 123.38 123.63C130.33 131.1 137.18 139.9 142.65 149.89C148.09 139.9 154.97 131.1 161.92 123.63Z" fill="#009900"/>
<path fill-rule="evenodd" clip-rule="evenodd" d="M123.39 342C130.48 358.76 139.2 371.56 142.66 376.73C146.11 371.55 154.83 358.76 161.93 342C154.98 334.51 148.1 325.71 142.66 315.73C137.19 325.71 130.34 334.51 123.39 342Z" fill="#009900"/>
<path fill-rule="evenodd" clip-rule="evenodd" d="M123.39 123.63C111.01 110.28 98.44 101.25 93.43 97.57C91.95 103.6 88.14 118.61 87.22 136.8C96.28 141.45 105.75 147.38 114.29 154.88C116.01 143.63 119.43 133.01 123.39 123.63Z" fill="#009900"/>
<path fill-rule="evenodd" clip-rule="evenodd" d="M161.92 342C174.28 355.34 186.87 364.37 191.88 368.05C193.35 362 197.17 347 198.08 328.83C189.02 324.17 179.55 318.23 171.01 310.73C169.3 321.98 165.86 332.6 161.92 342Z" fill="#009900"/>
<path fill-rule="evenodd" clip-rule="evenodd" d="M87.22 136.8C71.02 128.51 56.11 124.31 50.15 122.55C50.82 128.74 52.36 144.15 57.73 161.55C67.83 162.8 78.75 165.14 89.35 169.28C87.1 158.13 86.7 146.97 87.22 136.8Z" fill="#009900"/>
<path fill-rule="evenodd" clip-rule="evenodd" d="M198.08 328.84C214.28 337.13 229.18 341.32 235.16 343.06C234.49 336.88 232.93 321.47 227.57 304.07C217.47 302.81 206.54 300.46 195.95 296.31C198.19 307.5 198.6 318.65 198.08 328.84Z" fill="#009900"/>
<path fill-rule="evenodd" clip-rule="evenodd" d="M70.84 191.35C64.93 181.63 60.74 171.27 57.73 161.55C39.66 159.28 24.23 160.44 18.01 160.85C20.76 166.42 27.49 180.37 38.45 194.89C48.4 192.61 59.47 191.09 70.84 191.35Z" fill="#009900"/>
<path fill-rule="evenodd" clip-rule="evenodd" d="M214.45 274.27C220.38 283.99 224.6 294.35 227.57 304.07C245.63 306.33 261.08 305.17 267.29 304.78C264.53 299.18 257.83 285.24 246.83 270.71C236.9 273 225.84 274.54 214.45 274.27Z" fill="#009900"/>
<path fill-rule="evenodd" clip-rule="evenodd" d="M38.45 194.89C20.72 198.94 6.61 205.31 0.910004 207.82C5.41 212.11 16.5 222.92 31.78 232.81C40.32 227.29 50.2 222.04 60.98 218.41C52.1 211.29 44.62 203.01 38.45 194.89Z" fill="#009900"/>
<path fill-rule="evenodd" clip-rule="evenodd" d="M253.5 232.81C244.95 238.35 235.09 243.58 224.31 247.21C233.19 254.32 240.69 262.6 246.83 270.72C264.58 266.67 278.71 260.31 284.38 257.8C279.89 253.51 268.8 242.68 253.5 232.81Z" fill="#009900"/>
<path fill-rule="evenodd" clip-rule="evenodd" d="M60.99 247.21C50.2 243.58 40.33 238.34 31.79 232.81C16.51 242.68 5.41998 253.52 0.919983 257.8C6.61998 260.31 20.73 266.67 38.46 270.72C44.62 262.6 52.1 254.32 60.99 247.21Z" fill="#009900"/>
<path fill-rule="evenodd" clip-rule="evenodd" d="M224.31 218.41C235.08 222.04 244.95 227.29 253.5 232.81C268.8 222.92 279.89 212.11 284.38 207.82C278.71 205.31 264.59 198.95 246.83 194.89C240.69 203.01 233.19 211.29 224.31 218.41Z" fill="#009900"/>
<path fill-rule="evenodd" clip-rule="evenodd" d="M38.45 270.72C27.49 285.24 20.76 299.19 18.01 304.79C24.23 305.17 39.66 306.33 57.73 304.08C60.73 294.36 64.93 284 70.84 274.28C59.47 274.54 48.4 273 38.45 270.72Z" fill="#009900"/>
<path fill-rule="evenodd" clip-rule="evenodd" d="M246.83 194.89C257.83 180.36 264.53 166.42 267.29 160.83C261.08 160.45 245.63 159.29 227.57 161.55C224.6 171.27 220.38 181.63 214.45 191.35C225.84 191.09 236.9 192.61 246.83 194.89Z" fill="#009900"/>
<path fill-rule="evenodd" clip-rule="evenodd" d="M89.35 296.31C78.75 300.46 67.83 302.8 57.73 304.07C52.37 321.46 50.82 336.88 50.15 343.06C56.11 341.31 71.02 337.12 87.22 328.84C86.7 318.65 87.1 307.5 89.35 296.31Z" fill="#009900"/>
<path fill-rule="evenodd" clip-rule="evenodd" d="M195.94 169.28C206.54 165.14 217.46 162.8 227.56 161.55C232.92 144.15 234.48 128.74 235.15 122.55C229.17 124.29 214.27 128.49 198.07 136.78C198.6 146.97 198.19 158.11 195.94 169.28Z" fill="#009900"/>
<path fill-rule="evenodd" clip-rule="evenodd" d="M87.22 328.84C88.14 347 91.95 362.01 93.43 368.06C98.44 364.37 111.01 355.34 123.39 342.01C119.44 332.61 116.01 321.99 114.29 310.74C105.75 318.23 96.28 324.18 87.22 328.84Z" fill="#009900"/>
<path fill-rule="evenodd" clip-rule="evenodd" d="M198.08 136.78C197.17 118.61 193.35 103.6 191.88 97.57C186.87 101.25 174.28 110.28 161.92 123.63C165.86 133 169.3 143.63 171.01 154.88C179.55 147.38 189.02 141.43 198.08 136.78Z" fill="#009900"/>
<path fill-rule="evenodd" clip-rule="evenodd" d="M132.78 176.86C134.6 167.13 138.14 158.11 142.65 149.88C137.19 139.89 130.34 131.1 123.38 123.62C119.43 133 116 143.62 114.28 154.87C121.34 161.08 127.76 168.34 132.78 176.86Z" fill="#99CC00"/>
<path fill-rule="evenodd" clip-rule="evenodd" d="M152.52 288.75C150.69 298.48 147.16 307.5 142.65 315.73C148.09 325.71 154.97 334.51 161.92 342C165.86 332.6 169.3 321.98 171.01 310.73C163.98 304.53 157.54 297.27 152.52 288.75Z" fill="#99CC00"/>
<path fill-rule="evenodd" clip-rule="evenodd" d="M89.35 169.28C98.08 172.69 106.6 177.32 114.24 183.6C112.63 173.85 112.87 164.16 114.29 154.87C105.75 147.37 96.29 141.44 87.22 136.79C86.7 146.97 87.1 158.13 89.35 169.28Z" fill="#99CC00"/>
<path fill-rule="evenodd" clip-rule="evenodd" d="M195.94 296.31C187.21 292.92 178.71 288.27 171.06 282.01C172.68 291.76 172.42 301.43 171.01 310.72C179.55 318.22 189.02 324.17 198.08 328.82C198.6 318.65 198.19 307.5 195.94 296.31Z" fill="#99CC00"/>
<path fill-rule="evenodd" clip-rule="evenodd" d="M99.14 196.29C94.27 187.68 91.19 178.48 89.35 169.28C78.75 165.14 67.83 162.8 57.73 161.55C60.73 171.27 64.93 181.63 70.84 191.35C80.2 191.56 89.81 193.01 99.14 196.29Z" fill="#99CC00"/>
<path fill-rule="evenodd" clip-rule="evenodd" d="M186.16 269.33C191.01 277.94 194.1 287.12 195.94 296.32C206.54 300.47 217.46 302.82 227.56 304.08C224.59 294.36 220.37 284 214.44 274.28C205.09 274.06 195.49 272.61 186.16 269.33Z" fill="#99CC00"/>
<path fill-rule="evenodd" clip-rule="evenodd" d="M60.99 218.41C69.87 215.4 79.38 213.48 89.27 213.38C81.75 206.94 75.7 199.37 70.84 191.35C59.47 191.09 48.4 192.61 38.46 194.89C44.62 203.01 52.1 211.29 60.99 218.41Z" fill="#99CC00"/>
<path fill-rule="evenodd" clip-rule="evenodd" d="M224.31 247.21C215.41 250.21 205.92 252.13 196.03 252.24C203.55 258.67 209.58 266.26 214.44 274.28C225.83 274.54 236.89 273 246.82 270.72C240.69 262.6 233.19 254.32 224.31 247.21Z" fill="#99CC00"/>
<path fill-rule="evenodd" clip-rule="evenodd" d="M85.83 232.81C76.58 229.34 68.31 224.27 60.99 218.41C50.2 222.04 40.33 227.29 31.79 232.81C40.33 238.35 50.21 243.58 60.99 247.21C68.31 241.35 76.58 236.28 85.83 232.81Z" fill="#99CC00"/>
<path fill-rule="evenodd" clip-rule="evenodd" d="M199.46 232.81C208.73 236.28 216.99 241.35 224.32 247.21C235.09 243.58 244.96 238.34 253.51 232.81C244.96 227.29 235.1 222.04 224.32 218.41C216.99 224.26 208.72 229.33 199.46 232.81Z" fill="#99CC00"/>
<path fill-rule="evenodd" clip-rule="evenodd" d="M70.84 274.27C75.7 266.25 81.75 258.66 89.27 252.23C79.38 252.13 69.87 250.21 60.99 247.2C52.1 254.31 44.62 262.59 38.45 270.71C48.4 273 59.47 274.54 70.84 274.27Z" fill="#99CC00"/>
<path fill-rule="evenodd" clip-rule="evenodd" d="M214.45 191.35C209.59 199.36 203.56 206.94 196.04 213.38C205.93 213.48 215.42 215.4 224.32 218.41C233.2 211.29 240.7 203.01 246.84 194.89C236.9 192.61 225.84 191.09 214.45 191.35Z" fill="#99CC00"/>
<path fill-rule="evenodd" clip-rule="evenodd" d="M99.14 269.33C89.81 272.62 80.2 274.06 70.84 274.28C64.93 284 60.74 294.36 57.73 304.08C67.83 302.81 78.75 300.47 89.35 296.32C91.19 287.12 94.27 277.93 99.14 269.33Z" fill="#99CC00"/>
<path fill-rule="evenodd" clip-rule="evenodd" d="M186.16 196.29C195.49 193.01 205.08 191.56 214.44 191.35C220.37 181.63 224.59 171.27 227.56 161.55C217.46 162.8 206.53 165.14 195.94 169.28C194.11 178.48 191.02 187.67 186.16 196.29Z" fill="#99CC00"/>
<path fill-rule="evenodd" clip-rule="evenodd" d="M132.78 288.75C127.76 297.26 121.33 304.53 114.29 310.73C116.01 321.98 119.44 332.6 123.39 342C130.34 334.51 137.19 325.71 142.66 315.73C138.14 307.5 134.6 298.48 132.78 288.75Z" fill="#99CC00"/>
<path fill-rule="evenodd" clip-rule="evenodd" d="M114.24 282.02C106.59 288.28 98.08 292.92 89.35 296.32C87.1 307.5 86.7 318.65 87.22 328.84C96.28 324.18 105.75 318.24 114.29 310.74C112.87 301.44 112.63 291.76 114.24 282.02Z" fill="#99CC00"/>
<path fill-rule="evenodd" clip-rule="evenodd" d="M152.52 176.86C157.54 168.34 163.98 161.06 171.01 154.87C169.3 143.62 165.86 132.99 161.92 123.62C154.97 131.09 148.09 139.89 142.65 149.88C147.16 158.11 150.69 167.13 152.52 176.86Z" fill="#99CC00"/>
<path fill-rule="evenodd" clip-rule="evenodd" d="M171.06 183.6C178.71 177.32 187.21 172.69 195.94 169.28C198.19 158.11 198.59 146.96 198.07 136.78C189.01 141.43 179.54 147.38 171 154.87C172.43 164.16 172.68 173.85 171.06 183.6Z" fill="#99CC00"/>
<path fill-rule="evenodd" clip-rule="evenodd" d="M132.82 205.83C127.75 196.76 121.38 189.47 114.24 183.6C115.75 192.72 118.89 201.87 124.19 210.8C116.32 204.04 107.85 199.35 99.14 196.29C103.64 204.34 109.74 211.88 117.78 218.45C108.06 214.77 98.49 213.27 89.26 213.38C96.26 219.4 104.55 224.38 114.36 227.83C103.98 227.7 94.48 229.57 85.82 232.82C94.48 236.07 103.98 237.93 114.36 237.8C104.55 241.24 96.26 246.23 89.26 252.24C98.48 252.35 108.05 250.86 117.78 247.17C109.74 253.75 103.64 261.27 99.14 269.33C107.85 266.26 116.32 261.57 124.19 254.82C118.89 263.74 115.75 272.9 114.24 282.03C121.38 276.15 127.75 268.87 132.82 259.81C130.89 270 131.1 279.69 132.78 288.76C137.49 280.8 140.96 271.78 142.65 261.54C144.35 271.78 147.81 280.8 152.52 288.76C154.22 279.68 154.4 270 152.48 259.81C157.56 268.86 163.94 276.15 171.07 282.03C169.57 272.9 166.4 263.75 161.11 254.82C168.98 261.58 177.48 266.26 186.17 269.33C181.66 261.27 175.56 253.75 167.52 247.17C177.25 250.85 186.8 252.34 196.04 252.24C189.03 246.23 180.74 241.24 170.94 237.78C181.33 237.93 190.81 236.06 199.46 232.81C190.81 229.56 181.33 227.69 170.94 227.82C180.74 224.38 189.03 219.39 196.04 213.37C186.81 213.26 177.25 214.76 167.51 218.44C175.56 211.87 181.66 204.33 186.17 196.28C177.47 199.36 168.98 204.03 161.11 210.8C166.41 201.87 169.57 192.72 171.07 183.6C163.94 189.47 157.56 196.76 152.48 205.83C154.41 195.61 154.23 185.93 152.52 176.86C147.81 184.8 144.35 193.84 142.65 204.09C140.96 193.84 137.49 184.8 132.78 176.86C131.1 185.93 130.89 195.61 132.82 205.83Z" fill="white"/>
<path fill-rule="evenodd" clip-rule="evenodd" d="M132.82 205.83C130.89 195.61 131.1 185.93 132.78 176.86C127.76 168.34 121.33 161.08 114.29 154.87C112.87 164.15 112.63 173.84 114.24 183.6C121.38 189.47 127.75 196.76 132.82 205.83Z" fill="#FFE600"/>
<path fill-rule="evenodd" clip-rule="evenodd" d="M152.47 259.8C154.4 269.99 154.22 279.68 152.51 288.75C157.53 297.26 163.97 304.53 171 310.73C172.42 301.44 172.67 291.76 171.05 282.02C163.93 276.14 157.55 268.85 152.47 259.8Z" fill="#FFE600"/>
<path fill-rule="evenodd" clip-rule="evenodd" d="M114.24 183.6C106.59 177.32 98.08 172.69 89.35 169.28C91.19 178.48 94.27 187.67 99.14 196.29C107.85 199.35 116.32 204.04 124.19 210.8C118.89 201.87 115.75 192.72 114.24 183.6Z" fill="#FFE600"/>
<path fill-rule="evenodd" clip-rule="evenodd" d="M171.06 282.02C178.71 288.28 187.21 292.92 195.94 296.32C194.1 287.13 191.01 277.94 186.16 269.33C177.46 266.26 168.97 261.57 161.1 254.82C166.4 263.74 169.56 272.89 171.06 282.02Z" fill="#FFE600"/>
<path fill-rule="evenodd" clip-rule="evenodd" d="M117.78 218.45C109.74 211.88 103.64 204.34 99.14 196.29C89.81 193.01 80.2 191.56 70.84 191.35C75.7 199.36 81.75 206.94 89.27 213.38C98.49 213.27 108.06 214.77 117.78 218.45Z" fill="#FFE600"/>
<path fill-rule="evenodd" clip-rule="evenodd" d="M167.52 247.17C175.55 253.75 181.65 261.27 186.17 269.33C195.5 272.62 205.09 274.06 214.45 274.28C209.59 266.26 203.56 258.67 196.04 252.24C186.8 252.34 177.25 250.85 167.52 247.17Z" fill="#FFE600"/>
<path fill-rule="evenodd" clip-rule="evenodd" d="M114.37 227.82C104.56 224.38 96.27 219.39 89.27 213.37C79.38 213.47 69.87 215.39 60.99 218.4C68.31 224.25 76.58 229.32 85.83 232.8C94.48 229.56 103.98 227.69 114.37 227.82Z" fill="#FFE600"/>
<path fill-rule="evenodd" clip-rule="evenodd" d="M170.93 237.78C180.73 241.24 189.02 246.23 196.03 252.24C205.92 252.14 215.41 250.21 224.31 247.21C216.99 241.34 208.72 236.28 199.45 232.81C190.81 236.06 181.32 237.92 170.93 237.78Z" fill="#FFE600"/>
<path fill-rule="evenodd" clip-rule="evenodd" d="M85.83 232.81C76.58 236.28 68.31 241.35 60.99 247.21C69.87 250.22 79.38 252.13 89.27 252.24C96.27 246.23 104.56 241.24 114.37 237.8C103.98 237.92 94.48 236.06 85.83 232.81Z" fill="#FFE600"/>
<path fill-rule="evenodd" clip-rule="evenodd" d="M199.46 232.81C208.73 229.34 216.99 224.27 224.32 218.41C215.42 215.4 205.93 213.48 196.04 213.38C189.03 219.4 180.74 224.38 170.94 227.83C181.32 227.69 190.81 229.56 199.46 232.81Z" fill="#FFE600"/>
<path fill-rule="evenodd" clip-rule="evenodd" d="M117.78 247.17C108.06 250.85 98.49 252.34 89.26 252.24C81.74 258.67 75.69 266.26 70.83 274.28C80.2 274.07 89.8 272.62 99.13 269.33C103.65 261.27 109.74 253.75 117.78 247.17Z" fill="#FFE600"/>
<path fill-rule="evenodd" clip-rule="evenodd" d="M167.5 218.45C177.25 214.77 186.8 213.27 196.03 213.38C203.55 206.94 209.58 199.37 214.44 191.35C205.08 191.56 195.48 193.01 186.16 196.29C181.65 204.33 175.55 211.87 167.5 218.45Z" fill="#FFE600"/>
<path fill-rule="evenodd" clip-rule="evenodd" d="M132.78 288.75C134.6 298.48 138.14 307.5 142.65 315.73C147.16 307.5 150.69 298.48 152.52 288.75C147.81 280.79 144.35 271.77 142.65 261.53C140.96 271.77 137.49 280.79 132.78 288.75Z" fill="#FFE600"/>
<path fill-rule="evenodd" clip-rule="evenodd" d="M132.82 259.8C127.75 268.85 121.38 276.14 114.24 282.02C112.63 291.76 112.87 301.44 114.29 310.73C121.34 304.53 127.76 297.27 132.78 288.75C131.1 279.68 130.89 269.99 132.82 259.8Z" fill="#FFE600"/>
<path fill-rule="evenodd" clip-rule="evenodd" d="M99.14 269.33C94.27 277.94 91.19 287.12 89.35 296.32C98.08 292.93 106.6 288.28 114.24 282.02C115.75 272.89 118.89 263.74 124.19 254.81C116.32 261.57 107.85 266.26 99.14 269.33Z" fill="#FFE600"/>
<path fill-rule="evenodd" clip-rule="evenodd" d="M152.52 176.86C150.69 167.13 147.16 158.11 142.65 149.88C138.14 158.11 134.6 167.13 132.78 176.86C137.49 184.8 140.96 193.84 142.65 204.09C144.35 193.84 147.81 184.8 152.52 176.86Z" fill="#FFE600"/>
<path fill-rule="evenodd" clip-rule="evenodd" d="M152.47 205.83C157.55 196.76 163.93 189.47 171.06 183.6C172.68 173.85 172.42 164.16 171.01 154.87C163.98 161.06 157.54 168.34 152.52 176.86C154.22 185.93 154.4 195.61 152.47 205.83Z" fill="#FFE600"/>
<path fill-rule="evenodd" clip-rule="evenodd" d="M186.16 196.29C191.01 187.68 194.1 178.48 195.94 169.28C187.21 172.69 178.71 177.32 171.06 183.6C169.56 192.72 166.39 201.87 161.1 210.8C168.97 204.04 177.47 199.36 186.16 196.29Z" fill="#FFE600"/>
</g>
<defs>
<clipPath id="clip0_3734_398">
<rect width="285" height="377" fill="white"/>
</clipPath>
</defs>
</svg>
